<mxfile host="app.diagrams.net" agent="Mozilla/5.0 (Macintosh; Intel Mac OS X 10_15_7) AppleWebKit/537.36 (KHTML, like Gecko) Chrome/139.0.0.0 Safari/537.36" version="28.2.4">
  <diagram name="Page-1" id="tu_BV04H4zAeDj1DZz3r">
    <mxGraphModel dx="976" dy="594" grid="1" gridSize="10" guides="1" tooltips="1" connect="1" arrows="1" fold="1" page="1" pageScale="1" pageWidth="827" pageHeight="1169" math="0" shadow="0">
      <root>
        <mxCell id="0" />
        <mxCell id="1" parent="0" />
        <mxCell id="Arv6aJurrlXZ_o6UkTLK-19" style="edgeStyle=orthogonalEdgeStyle;rounded=0;orthogonalLoop=1;jettySize=auto;html=1;exitX=1;exitY=0.5;exitDx=0;exitDy=0;entryX=0;entryY=0.5;entryDx=0;entryDy=0;" edge="1" parent="1" source="Arv6aJurrlXZ_o6UkTLK-6" target="Arv6aJurrlXZ_o6UkTLK-18">
          <mxGeometry relative="1" as="geometry">
            <mxPoint x="700" y="160" as="targetPoint" />
            <Array as="points">
              <mxPoint x="680" y="230" />
              <mxPoint x="680" y="170" />
            </Array>
          </mxGeometry>
        </mxCell>
        <mxCell id="Arv6aJurrlXZ_o6UkTLK-29" style="edgeStyle=orthogonalEdgeStyle;rounded=0;orthogonalLoop=1;jettySize=auto;html=1;exitX=1;exitY=0.5;exitDx=0;exitDy=0;" edge="1" parent="1" source="Arv6aJurrlXZ_o6UkTLK-6" target="Arv6aJurrlXZ_o6UkTLK-26">
          <mxGeometry relative="1" as="geometry">
            <Array as="points">
              <mxPoint x="680" y="230" />
              <mxPoint x="680" y="280" />
            </Array>
          </mxGeometry>
        </mxCell>
        <mxCell id="Arv6aJurrlXZ_o6UkTLK-6" value="Event Processor" style="rounded=1;whiteSpace=wrap;html=1;labelPosition=center;verticalLabelPosition=bottom;align=center;verticalAlign=top;" vertex="1" parent="1">
          <mxGeometry x="240" y="160" width="390" height="140" as="geometry" />
        </mxCell>
        <mxCell id="Arv6aJurrlXZ_o6UkTLK-4" value="" style="edgeStyle=orthogonalEdgeStyle;rounded=0;orthogonalLoop=1;jettySize=auto;html=1;" edge="1" parent="1" source="Arv6aJurrlXZ_o6UkTLK-1" target="Arv6aJurrlXZ_o6UkTLK-2">
          <mxGeometry relative="1" as="geometry">
            <Array as="points">
              <mxPoint x="415.5" y="215.5" />
              <mxPoint x="415.5" y="216.5" />
            </Array>
          </mxGeometry>
        </mxCell>
        <mxCell id="Arv6aJurrlXZ_o6UkTLK-1" value="Event Queue&lt;div&gt;(AWS SQS)&lt;/div&gt;" style="sketch=0;points=[[0,0,0],[0.25,0,0],[0.5,0,0],[0.75,0,0],[1,0,0],[0,1,0],[0.25,1,0],[0.5,1,0],[0.75,1,0],[1,1,0],[0,0.25,0],[0,0.5,0],[0,0.75,0],[1,0.25,0],[1,0.5,0],[1,0.75,0]];outlineConnect=0;fontColor=#232F3E;fillColor=#E7157B;strokeColor=#ffffff;dashed=0;verticalLabelPosition=bottom;verticalAlign=top;align=center;html=1;fontSize=12;fontStyle=0;aspect=fixed;shape=mxgraph.aws4.resourceIcon;resIcon=mxgraph.aws4.sqs;" vertex="1" parent="1">
          <mxGeometry x="260" y="181" width="78" height="78" as="geometry" />
        </mxCell>
        <mxCell id="Arv6aJurrlXZ_o6UkTLK-5" value="" style="edgeStyle=orthogonalEdgeStyle;rounded=0;orthogonalLoop=1;jettySize=auto;html=1;" edge="1" parent="1" source="Arv6aJurrlXZ_o6UkTLK-2" target="Arv6aJurrlXZ_o6UkTLK-3">
          <mxGeometry relative="1" as="geometry">
            <Array as="points">
              <mxPoint x="556.5" y="215.5" />
              <mxPoint x="556.5" y="215.5" />
            </Array>
          </mxGeometry>
        </mxCell>
        <mxCell id="Arv6aJurrlXZ_o6UkTLK-2" value="Event Processor Service&lt;div&gt;(AWS Lambda)&lt;/div&gt;" style="outlineConnect=0;dashed=0;verticalLabelPosition=bottom;verticalAlign=top;align=center;html=1;shape=mxgraph.aws3.lambda_function;fillColor=#F58534;gradientColor=none;" vertex="1" parent="1">
          <mxGeometry x="400" y="184" width="69" height="72" as="geometry" />
        </mxCell>
        <mxCell id="Arv6aJurrlXZ_o6UkTLK-3" value="Event Store&lt;br&gt;(AWS Dynamo DB)" style="outlineConnect=0;dashed=0;verticalLabelPosition=bottom;verticalAlign=top;align=center;html=1;shape=mxgraph.aws3.dynamo_db;fillColor=#2E73B8;gradientColor=none;" vertex="1" parent="1">
          <mxGeometry x="530" y="179.5" width="72" height="81" as="geometry" />
        </mxCell>
        <mxCell id="Arv6aJurrlXZ_o6UkTLK-13" style="edgeStyle=orthogonalEdgeStyle;rounded=0;orthogonalLoop=1;jettySize=auto;html=1;entryX=0;entryY=0.5;entryDx=0;entryDy=0;" edge="1" parent="1" source="Arv6aJurrlXZ_o6UkTLK-9" target="Arv6aJurrlXZ_o6UkTLK-6">
          <mxGeometry relative="1" as="geometry" />
        </mxCell>
        <mxCell id="Arv6aJurrlXZ_o6UkTLK-9" value="Producer 1" style="rounded=1;whiteSpace=wrap;html=1;" vertex="1" parent="1">
          <mxGeometry x="60" y="130" width="100" height="50" as="geometry" />
        </mxCell>
        <mxCell id="Arv6aJurrlXZ_o6UkTLK-14" style="edgeStyle=orthogonalEdgeStyle;rounded=0;orthogonalLoop=1;jettySize=auto;html=1;" edge="1" parent="1" source="Arv6aJurrlXZ_o6UkTLK-10">
          <mxGeometry relative="1" as="geometry">
            <mxPoint x="240" y="230" as="targetPoint" />
          </mxGeometry>
        </mxCell>
        <mxCell id="Arv6aJurrlXZ_o6UkTLK-10" value="Producer 2" style="rounded=1;whiteSpace=wrap;html=1;" vertex="1" parent="1">
          <mxGeometry x="60" y="186.5" width="100" height="53.5" as="geometry" />
        </mxCell>
        <mxCell id="Arv6aJurrlXZ_o6UkTLK-15" style="edgeStyle=orthogonalEdgeStyle;rounded=0;orthogonalLoop=1;jettySize=auto;html=1;entryX=0;entryY=0.5;entryDx=0;entryDy=0;" edge="1" parent="1" source="Arv6aJurrlXZ_o6UkTLK-11" target="Arv6aJurrlXZ_o6UkTLK-6">
          <mxGeometry relative="1" as="geometry" />
        </mxCell>
        <mxCell id="Arv6aJurrlXZ_o6UkTLK-11" value="Producer N" style="rounded=1;whiteSpace=wrap;html=1;" vertex="1" parent="1">
          <mxGeometry x="60" y="290" width="100" height="50" as="geometry" />
        </mxCell>
        <mxCell id="Arv6aJurrlXZ_o6UkTLK-12" value=".&lt;div&gt;.&lt;/div&gt;&lt;div&gt;.&lt;/div&gt;" style="text;html=1;align=center;verticalAlign=middle;resizable=0;points=[];autosize=1;strokeColor=none;fillColor=none;" vertex="1" parent="1">
          <mxGeometry x="95" y="230" width="30" height="60" as="geometry" />
        </mxCell>
        <mxCell id="Arv6aJurrlXZ_o6UkTLK-34" style="edgeStyle=orthogonalEdgeStyle;rounded=0;orthogonalLoop=1;jettySize=auto;html=1;exitX=1;exitY=0.5;exitDx=0;exitDy=0;entryX=0;entryY=0.5;entryDx=0;entryDy=0;" edge="1" parent="1" source="Arv6aJurrlXZ_o6UkTLK-18" target="Arv6aJurrlXZ_o6UkTLK-31">
          <mxGeometry relative="1" as="geometry" />
        </mxCell>
        <mxCell id="Arv6aJurrlXZ_o6UkTLK-35" style="edgeStyle=orthogonalEdgeStyle;rounded=0;orthogonalLoop=1;jettySize=auto;html=1;entryX=0;entryY=0.5;entryDx=0;entryDy=0;" edge="1" parent="1" source="Arv6aJurrlXZ_o6UkTLK-18" target="Arv6aJurrlXZ_o6UkTLK-32">
          <mxGeometry relative="1" as="geometry" />
        </mxCell>
        <mxCell id="Arv6aJurrlXZ_o6UkTLK-36" style="edgeStyle=orthogonalEdgeStyle;rounded=0;orthogonalLoop=1;jettySize=auto;html=1;entryX=0;entryY=0.5;entryDx=0;entryDy=0;" edge="1" parent="1" source="Arv6aJurrlXZ_o6UkTLK-18" target="Arv6aJurrlXZ_o6UkTLK-33">
          <mxGeometry relative="1" as="geometry" />
        </mxCell>
        <mxCell id="Arv6aJurrlXZ_o6UkTLK-18" value="Sender" style="rounded=1;whiteSpace=wrap;html=1;" vertex="1" parent="1">
          <mxGeometry x="800" y="140" width="120" height="60" as="geometry" />
        </mxCell>
        <mxCell id="Arv6aJurrlXZ_o6UkTLK-25" value="&lt;b&gt;Option 1:&lt;/b&gt;&lt;div&gt;Lambda Trigger via Dynamo DB Stream&lt;/div&gt;" style="text;html=1;align=center;verticalAlign=middle;whiteSpace=wrap;rounded=0;" vertex="1" parent="1">
          <mxGeometry x="670" y="130" width="130" height="30" as="geometry" />
        </mxCell>
        <mxCell id="Arv6aJurrlXZ_o6UkTLK-37" style="edgeStyle=orthogonalEdgeStyle;rounded=0;orthogonalLoop=1;jettySize=auto;html=1;exitX=1;exitY=0.5;exitDx=0;exitDy=0;entryX=0;entryY=0.5;entryDx=0;entryDy=0;" edge="1" parent="1" source="Arv6aJurrlXZ_o6UkTLK-26" target="Arv6aJurrlXZ_o6UkTLK-31">
          <mxGeometry relative="1" as="geometry" />
        </mxCell>
        <mxCell id="Arv6aJurrlXZ_o6UkTLK-26" value="Sender" style="rounded=1;whiteSpace=wrap;html=1;" vertex="1" parent="1">
          <mxGeometry x="800" y="250" width="120" height="60" as="geometry" />
        </mxCell>
        <mxCell id="Arv6aJurrlXZ_o6UkTLK-30" value="&lt;b&gt;Option 2:&lt;/b&gt;&lt;div&gt;Sender polls the Dynamo DB Table&lt;/div&gt;" style="text;html=1;align=center;verticalAlign=middle;whiteSpace=wrap;rounded=0;" vertex="1" parent="1">
          <mxGeometry x="670" y="290" width="130" height="30" as="geometry" />
        </mxCell>
        <mxCell id="Arv6aJurrlXZ_o6UkTLK-31" value="Client 1" style="rounded=1;whiteSpace=wrap;html=1;" vertex="1" parent="1">
          <mxGeometry x="980" y="120" width="100" height="50" as="geometry" />
        </mxCell>
        <mxCell id="Arv6aJurrlXZ_o6UkTLK-32" value="Client 2" style="rounded=1;whiteSpace=wrap;html=1;" vertex="1" parent="1">
          <mxGeometry x="980" y="180" width="100" height="50" as="geometry" />
        </mxCell>
        <mxCell id="Arv6aJurrlXZ_o6UkTLK-33" value="Client N" style="rounded=1;whiteSpace=wrap;html=1;" vertex="1" parent="1">
          <mxGeometry x="980" y="290" width="100" height="50" as="geometry" />
        </mxCell>
        <mxCell id="Arv6aJurrlXZ_o6UkTLK-38" value=".&lt;div&gt;.&lt;/div&gt;&lt;div&gt;.&lt;/div&gt;&lt;div&gt;.&lt;/div&gt;" style="text;html=1;align=center;verticalAlign=middle;resizable=0;points=[];autosize=1;strokeColor=none;fillColor=none;" vertex="1" parent="1">
          <mxGeometry x="1015" y="228" width="30" height="70" as="geometry" />
        </mxCell>
      </root>
    </mxGraphModel>
  </diagram>
</mxfile>
